<?xml version="1.0" standalone="no"?><!DOCTYPE svg PUBLIC "-//W3C//DTD SVG 1.1//EN" "http://www.w3.org/Graphics/SVG/1.1/DTD/svg11.dtd"><svg t="1744701721147" class="icon" viewBox="0 0 1024 1024" version="1.1" xmlns="http://www.w3.org/2000/svg" p-id="2971" width="32" height="32" xmlns:xlink="http://www.w3.org/1999/xlink"><path d="M64 64h160V0H0v224h64zM800 0v64H960v160h64V0zM64 800H0V1024h224v-64H64zM960 960h-160v64H1024v-224h-64zM128 320c0 70.4 57.6 128 128 128 57.6 0 108.8-38.4 121.6-96h268.8c12.8 57.6 64 96 121.6 96 70.4 0 128-57.6 128-128s-57.6-128-128-128c-57.6 0-108.8 38.4-121.6 96H377.6C364.8 230.4 313.6 192 256 192c-70.4 0-128 57.6-128 128z m640-64c38.4 0 64 25.6 64 64s-25.6 64-64 64-64-25.6-64-64 32-64 64-64zM256 256c38.4 0 64 25.6 64 64s-32 64-64 64-64-32-64-64 25.6-64 64-64zM864 832V576h-256v96H390.4V576h-256v256h256v-96h224V832h249.6z m-537.6-64h-128v-128h128v128z m345.6-128h128v128h-128v-128z" fill="#1296db" p-id="2972"></path></svg>